/* XPM */
/* C:\Program Files\Spotify\spotify.exe */
static char *icon[] = {
"48 48 184 2",
"01 c #002200",
"04 c #0E260C",
"05 c #003100",
"07 c #003900",
"0B c #0B3200",
"0C c #093E00",
"0D c #10300D",
"0E c #113010",
"0F c #1F3916",
"10 c #23371C",
"11 c #253E1E",
"12 c #2A3D23",
"13 c #004100",
"14 c #034500",
"16 c #084600",
"18 c #0B4A00",
"19 c #134400",
"1C c #154E00",
"1D c #1B4200",
"1E c #184500",
"20 c #165100",
"21 c #155400",
"23 c #1D5800",
"24 c #204D00",
"25 c #215300",
"26 c #225800",
"28 c #255900",
"2B c #315D04",
"2C c #266100",
"2D c #276400",
"2F c #296400",
"32 c #2F6A00",
"33 c #326600",
"35 c #386600",
"36 c #3B6508",
"37 c #396A01",
"39 c #3A7300",
"3A c #3C7500",
"3B c #47563D",
"3C c #416E07",
"3D c #426D0B",
"3E c #437500",
"3F c #42740A",
"40 c #447A00",
"43 c #4D7409",
"44 c #487900",
"46 c #4E7E00",
"47 c #4D7C06",
"49 c #507C00",
"4A c #517413",
"4B c #547D10",
"4D c #567524",
"4E c #557823",
"50 c #5C7A20",
"51 c #5C782E",
"52 c #5E7831",
"54 c #627C34",
"55 c #4B5C40",
"56 c #468000",
"58 c #4A8400",
"5E c #568500",
"5F c #558409",
"60 c #518900",
"62 c #568C00",
"63 c #58820C",
"64 c #598900",
"68 c #528016",
"69 c #5E8513",
"6A c #5E8A13",
"6B c #5A9000",
"6D c #5D9100",
"70 c #618E00",
"71 c #648D0C",
"72 c #61821A",
"74 c #608E1C",
"75 c #698B19",
"77 c #619500",
"78 c #649100",
"7A c #629A00",
"7B c #639C00",
"7F c #699400",
"81 c #699900",
"85 c #67901D",
"88 c #71970F",
"89 c #739E00",
"8A c #7B9F0E",
"8B c #719616",
"8D c #72991B",
"8E c #789F10",
"90 c #61852B",
"91 c #638236",
"92 c #66823D",
"94 c #6C9721",
"95 c #729D22",
"96 c #7B963D",
"97 c #66A000",
"99 c #6AA400",
"9C c #6FA800",
"9D c #71A100",
"9F c #75A100",
"A2 c #76A900",
"A3 c #74A909",
"A4 c #79A500",
"A5 c #7FA50B",
"A6 c #79A800",
"A7 c #7BAD00",
"A8 c #7DAA00",
"AA c #7EAC00",
"AB c #74A613",
"AC c #75A01B",
"AD c #7CA211",
"AF c #7EAE18",
"B0 c #7DA021",
"B2 c #6E8449",
"B3 c #70864E",
"B4 c #748A49",
"B5 c #7D944D",
"B6 c #7B905C",
"B8 c #83AD0B",
"B9 c #88AE04",
"BA c #83AD13",
"BB c #83A918",
"BC c #8AAE1F",
"BD c #85B000",
"BE c #85B00C",
"BF c #8AB103",
"C0 c #8CB20B",
"C2 c #84B01C",
"C3 c #8CB213",
"C5 c #90B40D",
"C6 c #91B512",
"C7 c #91B61B",
"C8 c #94B813",
"C9 c #95B81C",
"CA c #98BB13",
"CB c #98BC19",
"CC c #80A423",
"CD c #83AA23",
"CE c #88AA20",
"CF c #88AD2D",
"D0 c #81A033",
"D1 c #8CAD3A",
"D2 c #86B221",
"D5 c #8DB52A",
"D6 c #8EB829",
"D7 c #91B622",
"D8 c #91B62A",
"D9 c #95B923",
"DA c #94B92B",
"DB c #9ABC24",
"DC c #9BBC2B",
"DD c #90B032",
"DE c #96BA30",
"DF c #9BBD31",
"E0 c #819B44",
"E1 c #82994E",
"E2 c #838C77",
"E3 c #879A6C",
"E5 c #88996E",
"E6 c #8E9D75",
"E7 c #8AA445",
"E8 c #82A050",
"E9 c #8DA25A",
"EA c #90A94D",
"EB c #98B057",
"ED c #8EA26B",
"EE c #8DA070",
"EF c #97AD6E",
"F0 c #93A772",
"F1 c #95A378",
"F2 c #96A879",
"F3 c #9DAE74",
"F4 c #9FB661",
"F5 c #9EB369",
"F6 c #9BB174",
"F7 c #A1B86C",
"F8 c #A1B578",
"F9 c #A5B973",
"FA c #A4B87C",
"FB c #A8BB7E",
"FC c #9EC02D",
"FD c #A1C12C",
"FE c #A2C230",
"   c None",
"                                                                                                ",
"                                                                                                ",
"                                    F4DDBEC5BFBFBFC5C5C0BAD1F7                                  ",
"                              F9C7BFBFBFBFB9AAB9B9A8B9A8B9AAC5B8CFFB                            ",
"                          F9C6BFBFB9B9BFAAB9B9B9B9B9B9B9C0B9B8AAB8BECD                          ",
"                        D9BFBFBFBFBFB9BFB9C0C0C0B9C0C0BBC0BBC0C0BAB8B8BED1                      ",
"                    FBBFBFBFBFBFBFBFBFC5B9C0C0C5C5C3C5C5C5C3C3C3C3BAC3B8BEBA                    ",
"                  EBBFBFBFBFBFBFC5C5C5C5C5C5C5C3C6C6C6C6C6BCC8BCC6C7C3AFC3BABAFA                ",
"                EBBFBFBFBFC5C5C5C5C5C5C5C8C8C6C6C6C6C6C7C7C7C7C7D7D7D6C7C2C3C3BAF8              ",
"              F5BFBFBFBFC5C5C5C5C6C6C6C8C8C8C9C7C7C9C7C9C9C9D7D7D7D7D9D8D9D6AFAFBA              ",
"              B8BFC5C5C5C5CACACACAC8C8BCC3BCC3C7C7DBDBDBDBDBD9DBD9D8D9D8D8D8D6C7BAAF            ",
"            BABFC5C5C6CAC38A8863433C2B282B282B2B2B36434B758DCED8DAFDDAD8D8D8D8D6C2AFD0          ",
"          EABFC5C5C6AD3C281D1D1E1E1E2024241D24241D24241D2420242B4A75CFDFDFDED8D5D6C2AFF6        ",
"          B8C5C5C6BA241E20242424242424242424242424242424242425201E20243D85DDDFDED6C2AFAC        ",
"        E7C5C5C6CB8E1E2424241D241E1E241D2424242424241D24242424252524201E1E2C68CFDED6C2AFEF      ",
"        A5C5C6C7CBBC2B1D1D282B3D4B758DB0B0B0B0B08B7149372C1E0C07050716161919162574D8D2AF95      ",
"      F3C5C3C7C9DBDBBC6975CED9FCFCFDFDFDDBC9C5BFBFB9BFBFAAA67F3E2C0C0505070507050C94D6C2AB      ",
"      D0C5C7C9D9D9D9FCFCFDFCFCFCFCDCC9C5B9B9B9B9B9B9B9AAAAAABFBFAAA6492505050705053EB8AFAFE8    ",
"      8AC3C7D9DBDCDCDCDCFCFCFEFCC6A8A49F8989899FA4B9AABFBFBDAAAAAAAAAAAA702505050C7BA299A394    ",
"      B8C7D7DAFCDCDCFCFCDCCC6A44332B2C2C28282C2C2C3332476481A7AAB9AAA7A6A7A764407BA29DA29977    ",
"    F3BAC7D9DAFCDCFCDFCD3F2C2425252C2526262C25262626262020262F4077A6AAA7A7A2A7A7A2A29C999D7B    ",
"    E9C3C7DBDADFDFDFFC432528282824252525252025252020202626232020202F5E89A7A79DA2A2999D9D9C7B    ",
"    E0C3D9DAFCDFDFD9BF4925252C3544497070777F70645E47372F2020202025202028499DA7A29C9DA2999999F0  ",
"    96C3C9DADADFC9B9B9AA78789FB9BFBFBFBFBFBFBFBFBFBFB9A77F6237232120202020339DA2A29D9C999D81ED  ",
"    96C3D7DADFC7B9AAB9B9B9BFBFB9AAB9AAB9AAAAAAAAAAAAB9AABFAAAA89462D1C20201C64A2A2999D9C997BED  ",
"    E1BAD7DAC7AAAAB9AAB9B9AAB9AABFAAAAAAA7A7A7A7A7A7AAAAAAA7A7AAAA9D46261C26999DA2999D99997BF2  ",
"    EDBAD7D7AAAAB9A8AAB9AAA79D89776D6D6B62626B6B6B6B7B999DA7A7A79DA7A7996281A2A2999D9999996D    ",
"      ADC7AAAAAAAAB9AAB981626246604660466260466046605858606B7A99A7A79DA2A7A2999DA2999999816D    ",
"      88AAA8AAAAAAAAAAAA64466046625E6264646464645E604646605656606B99A2A2999D9C999D999999995F    ",
"      75A6A8A8A8AAAAAAB989707F8989A6A8A8A8AAA8A8A68981776246565656466B9CA29C9D9C999999997B90    ",
"      B59DAAA6A8A8A8AAA8AAAAAAAAAAA8A8A8A8A6A6A6A7A7A7A7A6816D605656407A9D9D999D999999976DEE    ",
"        7FA6A7A8AAA8A8A8A8A8AAAAA7A7A7A7A7A7A7A7A7A6A6A7A2A7A2996D46407BA2999D999999977B46      ",
"        729DA7A6A6A8A8AAAAAAAAAABDBDBDBDA7AABDBDAAA7A79DA29DA2A2A29799999D9999998199977A92      ",
"        F17F9DA7A6A7A7A6AABDA7815E3A322D2D2D323A467BA2A7A7A2A29DA2A29C9D9D99999999997B5E        ",
"          7289A6A6A6AABD994023141313071313130713071321396DA2A29C999D9D9999999999977B6D91        ",
"            649DA7A79D321807131314131413131313131313070713266DA29C99999999999997977B47          ",
"            B47FA6461813131313141314131313131313131313131307073299A29799999999977B5EE3          ",
"              502F07131313131313131313131313131313131313071307071C6DA2999997977B6292            ",
"                0E07131313131313131313131313131313131307131313070716649C97977B6D4E              ",
"                  0D051313131313070713071313070707130713130707070707166D997A624E                ",
"                    110507071307162F466B6D6D603921070713070713070707051C645E52                  ",
"                      550505073381A7A7A2A2A2A2A2A2601C0507070707070705051DB6                    ",
"                          0F3581819D999D9C999D999DA2992C0507070505050112                        ",
"                            E54A5E7077818199998199999999260505050110E2                          ",
"                                  5443495E6464776D6D6464460B043B                                ",
"                                        E5B2514D4D4D52B3E6                                      ",
"                                                                                                ",
"                                                                                                "};
